STARTFONT 2.1
FONT -Misc-TamzenPL-Bold-I-Normal--14-101-100-100-C-70-ISO10646-1
SIZE 14 100 100
FONTBOUNDINGBOX 11 14 -2 -3
STARTPROPERTIES 25
FONTNAME_REGISTRY ""
FOUNDRY "Misc"
FAMILY_NAME "TamzenPL"
WEIGHT_NAME "Bold"
SLANT "I"
SETWIDTH_NAME "Normal"
ADD_STYLE_NAME ""
PIXEL_SIZE 14
POINT_SIZE 101
RESOLUTION_X 100
RESOLUTION_Y 100
SPACING "C"
AVERAGE_WIDTH 70
CHARSET_REGISTRY "ISO10646"
CHARSET_ENCODING "1"
COPYRIGHT "(c) 2012 Scott Fial"
CAP_HEIGHT 8
X_HEIGHT 6
FONT_VERSION "1.9"
WEIGHT 10
QUAD_WIDTH 7
DEFAULT_CHAR 0
FONT_DESCENT 3
FONT_ASCENT 11
_GBDFED_INFO "Edited with gbdfed 1.6."
ENDPROPERTIES
CHARS 195
STARTCHAR U+0000
ENCODING 0
SWIDTH 360 0
DWIDTH 7 0
BBX 11 14 -2 -3
BITMAP
0000
0000
0000
0FC0
0CC0
0CC0
1980
1980
1980
3300
3F00
0000
0000
0000
ENDCHAR
STARTCHAR U+0020
ENCODING 32
SWIDTH 360 0
DWIDTH 7 0
BBX 11 14 -2 -3
BITMAP
0000
0000
0000
0000
0000
0000
0000
0000
0000
0000
0000
0000
0000
0000
ENDCHAR
STARTCHAR U+0021
ENCODING 33
SWIDTH 360 0
DWIDTH 7 0
BBX 11 14 -2 -3
BITMAP
0000
0000
0300
0F00
0F00
0600
0C00
0000
0000
1800
1800
0000
0000
0000
ENDCHAR
STARTCHAR U+0022
ENCODING 34
SWIDTH 360 0
DWIDTH 7 0
BBX 11 14 -2 -3
BITMAP
0000
0000
0D80
1B00
1B00
1B00
0000
0000
0000
0000
0000
0000
0000
0000
ENDCHAR
STARTCHAR U+0023
ENCODING 35
SWIDTH 360 0
DWIDTH 7 0
BBX 11 14 -2 -3
BITMAP
0000
0000
0480
0900
1F80
1F80
1200
1200
3F00
7E00
2400
2400
0000
0000
ENDCHAR
STARTCHAR U+0024
ENCODING 36
SWIDTH 360 0
DWIDTH 7 0
BBX 11 14 -2 -3
BITMAP
0000
0000
0300
0600
0F80
1800
1800
0600
0300
7C00
1800
1800
0000
0000
ENDCHAR
STARTCHAR U+0025
ENCODING 37
SWIDTH 360 0
DWIDTH 7 0
BBX 11 14 -2 -3
BITMAP
0000
0000
0000
0C00
1A80
1B00
1C00
0E00
3E00
5A00
0C00
0000
0000
0000
ENDCHAR
STARTCHAR U+0026
ENCODING 38
SWIDTH 360 0
DWIDTH 7 0
BBX 11 14 -2 -3
BITMAP
0000
0000
0000
0E00
1B00
1B00
1C00
3780
3500
6600
3F00
0000
0000
0000
ENDCHAR
STARTCHAR U+0027
ENCODING 39
SWIDTH 360 0
DWIDTH 7 0
BBX 11 14 -2 -3
BITMAP
0000
0000
0300
0600
0600
0600
0000
0000
0000
0000
0000
0000
0000
0000
ENDCHAR
STARTCHAR U+0028
ENCODING 40
SWIDTH 360 0
DWIDTH 7 0
BBX 11 14 -2 -3
BITMAP
0000
0000
0180
0600
0600
0C00
1800
1800
1800
3000
1800
1800
1800
0000
ENDCHAR
STARTCHAR U+0029
ENCODING 41
SWIDTH 360 0
DWIDTH 7 0
BBX 11 14 -2 -3
BITMAP
0000
0000
0600
0600
0600
0300
0600
0600
0600
0C00
1800
1800
6000
0000
ENDCHAR
STARTCHAR U+002A
ENCODING 42
SWIDTH 360 0
DWIDTH 7 0
BBX 11 14 -2 -3
BITMAP
0000
0000
0000
0000
0000
0D80
0E00
3F80
0E00
3600
0000
0000
0000
0000
ENDCHAR
STARTCHAR U+002B
ENCODING 43
SWIDTH 360 0
DWIDTH 7 0
BBX 11 14 -2 -3
BITMAP
0000
0000
0000
0000
0000
0600
0C00
3F00
0C00
1800
0000
0000
0000
0000
ENDCHAR
STARTCHAR U+002C
ENCODING 44
SWIDTH 360 0
DWIDTH 7 0
BBX 11 14 -2 -3
BITMAP
0000
0000
0000
0000
0000
0000
0000
0000
0000
3800
3800
1800
3000
6000
ENDCHAR
STARTCHAR U+002D
ENCODING 45
SWIDTH 360 0
DWIDTH 7 0
BBX 11 14 -2 -3
BITMAP
0000
0000
0000
0000
0000
0000
0000
3F00
0000
0000
0000
0000
0000
0000
ENDCHAR
STARTCHAR U+002E
ENCODING 46
SWIDTH 360 0
DWIDTH 7 0
BBX 11 14 -2 -3
BITMAP
0000
0000
0000
0000
0000
0000
0000
0000
0000
3800
3800
0000
0000
0000
ENDCHAR
STARTCHAR U+002F
ENCODING 47
SWIDTH 360 0
DWIDTH 7 0
BBX 11 14 -2 -3
BITMAP
0000
0000
00C0
0180
0300
0300
0C00
0C00
1800
3000
6000
6000
0000
0000
ENDCHAR
STARTCHAR U+0030
ENCODING 48
SWIDTH 360 0
DWIDTH 7 0
BBX 11 14 -2 -3
BITMAP
0000
0000
0000
0F00
1980
1B80
3700
3B00
3B00
6600
3C00
0000
0000
0000
ENDCHAR
STARTCHAR U+0031
ENCODING 49
SWIDTH 360 0
DWIDTH 7 0
BBX 11 14 -2 -3
BITMAP
0000
0000
0000
0600
0E00
1E00
0C00
0C00
0C00
1800
7E00
0000
0000
0000
ENDCHAR
STARTCHAR U+0032
ENCODING 50
SWIDTH 360 0
DWIDTH 7 0
BBX 11 14 -2 -3
BITMAP
0000
0000
0000
0F00
1980
0180
0600
0C00
1800
6000
7E00
0000
0000
0000
ENDCHAR
STARTCHAR U+0033
ENCODING 51
SWIDTH 360 0
DWIDTH 7 0
BBX 11 14 -2 -3
BITMAP
0000
0000
0000
1F80
0180
0700
0A00
0300
0300
6600
3C00
0000
0000
0000
ENDCHAR
STARTCHAR U+0034
ENCODING 52
SWIDTH 360 0
DWIDTH 7 0
BBX 11 14 -2 -3
BITMAP
0000
0000
0000
0300
0700
0B00
1600
3F00
0600
0C00
0C00
0000
0000
0000
ENDCHAR
STARTCHAR U+0035
ENCODING 53
SWIDTH 360 0
DWIDTH 7 0
BBX 11 14 -2 -3
BITMAP
0000
0000
0000
1F80
1800
1800
3E00
0300
0300
6600
3C00
0000
0000
0000
ENDCHAR
STARTCHAR U+0036
ENCODING 54
SWIDTH 360 0
DWIDTH 7 0
BBX 11 14 -2 -3
BITMAP
0000
0000
0000
0700
0C00
1800
3E00
3300
3300
6600
3C00
0000
0000
0000
ENDCHAR
STARTCHAR U+0037
ENCODING 55
SWIDTH 360 0
DWIDTH 7 0
BBX 11 14 -2 -3
BITMAP
0000
0000
0000
1F80
0180
0300
0600
0C00
0C00
3000
3000
0000
0000
0000
ENDCHAR
STARTCHAR U+0038
ENCODING 56
SWIDTH 360 0
DWIDTH 7 0
BBX 11 14 -2 -3
BITMAP
0000
0000
0000
0F00
1980
1980
1E00
3300
3300
6600
3C00
0000
0000
0000
ENDCHAR
STARTCHAR U+0039
ENCODING 57
SWIDTH 360 0
DWIDTH 7 0
BBX 11 14 -2 -3
BITMAP
0000
0000
0000
0F00
1980
1980
3300
1F00
0300
0C00
3800
0000
0000
0000
ENDCHAR
STARTCHAR U+003A
ENCODING 58
SWIDTH 360 0
DWIDTH 7 0
BBX 11 14 -2 -3
BITMAP
0000
0000
0000
0000
0E00
0E00
0000
0000
0000
3800
3800
0000
0000
0000
ENDCHAR
STARTCHAR U+003B
ENCODING 59
SWIDTH 360 0
DWIDTH 7 0
BBX 11 14 -2 -3
BITMAP
0000
0000
0000
0000
0E00
0E00
0000
0000
0000
3800
3800
1800
3000
6000
ENDCHAR
STARTCHAR U+003C
ENCODING 60
SWIDTH 360 0
DWIDTH 7 0
BBX 11 14 -2 -3
BITMAP
0000
0000
0000
0000
0180
0300
0C00
1800
0800
0C00
0600
0000
0000
0000
ENDCHAR
STARTCHAR U+003D
ENCODING 61
SWIDTH 360 0
DWIDTH 7 0
BBX 11 14 -2 -3
BITMAP
0000
0000
0000
0000
0000
1F80
0000
0000
3F00
0000
0000
0000
0000
0000
ENDCHAR
STARTCHAR U+003E
ENCODING 62
SWIDTH 360 0
DWIDTH 7 0
BBX 11 14 -2 -3
BITMAP
0000
0000
0000
0000
1800
0800
0C00
0600
0C00
3000
6000
0000
0000
0000
ENDCHAR
STARTCHAR U+003F
ENCODING 63
SWIDTH 360 0
DWIDTH 7 0
BBX 11 14 -2 -3
BITMAP
0000
0000
0F80
1180
0180
0300
0C00
0000
0000
1800
1800
0000
0000
0000
ENDCHAR
STARTCHAR U+0040
ENCODING 64
SWIDTH 360 0
DWIDTH 7 0
BBX 11 14 -2 -3
BITMAP
0000
0000
0000
0F00
1980
1980
3700
3700
3700
6000
6000
3E00
0000
0000
ENDCHAR
STARTCHAR U+0041
ENCODING 65
SWIDTH 360 0
DWIDTH 7 0
BBX 11 14 -2 -3
BITMAP
0000
0000
0000
0600
0F00
1980
3300
3F00
3300
6600
6600
0000
0000
0000
ENDCHAR
STARTCHAR U+0042
ENCODING 66
SWIDTH 360 0
DWIDTH 7 0
BBX 11 14 -2 -3
BITMAP
0000
0000
0000
1F00
1980
1980
3E00
3300
3300
6600
7C00
0000
0000
0000
ENDCHAR
STARTCHAR U+0043
ENCODING 67
SWIDTH 360 0
DWIDTH 7 0
BBX 11 14 -2 -3
BITMAP
0000
0000
0000
0780
0C00
1800
3000
3000
3000
3000
1E00
0000
0000
0000
ENDCHAR
STARTCHAR U+0044
ENCODING 68
SWIDTH 360 0
DWIDTH 7 0
BBX 11 14 -2 -3
BITMAP
0000
0000
0000
1E00
1B00
1980
3300
3300
3300
6C00
7800
0000
0000
0000
ENDCHAR
STARTCHAR U+0045
ENCODING 69
SWIDTH 360 0
DWIDTH 7 0
BBX 11 14 -2 -3
BITMAP
0000
0000
0000
1F80
1800
1800
3E00
3000
3000
6000
7E00
0000
0000
0000
ENDCHAR
STARTCHAR U+0046
ENCODING 70
SWIDTH 360 0
DWIDTH 7 0
BBX 11 14 -2 -3
BITMAP
0000
0000
0000
1F80
1800
1800
3E00
3000
3000
6000
6000
0000
0000
0000
ENDCHAR
STARTCHAR U+0047
ENCODING 71
SWIDTH 360 0
DWIDTH 7 0
BBX 11 14 -2 -3
BITMAP
0000
0000
0000
0780
0C00
1800
3000
3300
3300
3600
1E00
0000
0000
0000
ENDCHAR
STARTCHAR U+0048
ENCODING 72
SWIDTH 360 0
DWIDTH 7 0
BBX 11 14 -2 -3
BITMAP
0000
0000
0000
1980
1980
1980
3F00
3300
3300
6600
6600
0000
0000
0000
ENDCHAR
STARTCHAR U+0049
ENCODING 73
SWIDTH 360 0
DWIDTH 7 0
BBX 11 14 -2 -3
BITMAP
0000
0000
0000
1F80
0600
0600
0C00
0C00
0C00
1800
7E00
0000
0000
0000
ENDCHAR
STARTCHAR U+004A
ENCODING 74
SWIDTH 360 0
DWIDTH 7 0
BBX 11 14 -2 -3
BITMAP
0000
0000
0000
0180
0180
0180
0300
0300
3300
6600
3C00
0000
0000
0000
ENDCHAR
STARTCHAR U+004B
ENCODING 75
SWIDTH 360 0
DWIDTH 7 0
BBX 11 14 -2 -3
BITMAP
0000
0000
0000
1980
1B00
1E00
3800
3800
3800
6C00
6600
0000
0000
0000
ENDCHAR
STARTCHAR U+004C
ENCODING 76
SWIDTH 360 0
DWIDTH 7 0
BBX 11 14 -2 -3
BITMAP
0000
0000
0000
1800
1800
1800
3000
3000
3000
6000
7E00
0000
0000
0000
ENDCHAR
STARTCHAR U+004D
ENCODING 77
SWIDTH 360 0
DWIDTH 7 0
BBX 11 14 -2 -3
BITMAP
0000
0000
0000
1980
1F80
1F80
3300
3300
3300
6600
6600
0000
0000
0000
ENDCHAR
STARTCHAR U+004E
ENCODING 78
SWIDTH 360 0
DWIDTH 7 0
BBX 11 14 -2 -3
BITMAP
0000
0000
0000
1980
1980
1D80
3F00
3700
3300
6600
6600
0000
0000
0000
ENDCHAR
STARTCHAR U+004F
ENCODING 79
SWIDTH 360 0
DWIDTH 7 0
BBX 11 14 -2 -3
BITMAP
0000
0000
0000
0F00
1980
1980
3300
3300
3300
6600
3C00
0000
0000
0000
ENDCHAR
STARTCHAR U+0050
ENCODING 80
SWIDTH 360 0
DWIDTH 7 0
BBX 11 14 -2 -3
BITMAP
0000
0000
0000
1F00
1980
1980
3300
3E00
3000
6000
6000
0000
0000
0000
ENDCHAR
STARTCHAR U+0051
ENCODING 81
SWIDTH 360 0
DWIDTH 7 0
BBX 11 14 -2 -3
BITMAP
0000
0000
0000
0F00
1980
1980
3300
3300
3300
6600
3C00
0E00
0000
0000
ENDCHAR
STARTCHAR U+0052
ENCODING 82
SWIDTH 360 0
DWIDTH 7 0
BBX 11 14 -2 -3
BITMAP
0000
0000
0000
1F00
1980
1980
3300
3E00
3600
6600
6600
0000
0000
0000
ENDCHAR
STARTCHAR U+0053
ENCODING 83
SWIDTH 360 0
DWIDTH 7 0
BBX 11 14 -2 -3
BITMAP
0000
0000
0000
0F80
1800
1800
1C00
0600
0300
0600
7C00
0000
0000
0000
ENDCHAR
STARTCHAR U+0054
ENCODING 84
SWIDTH 360 0
DWIDTH 7 0
BBX 11 14 -2 -3
BITMAP
0000
0000
0000
1F80
0600
0600
0C00
0C00
0C00
1800
1800
0000
0000
0000
ENDCHAR
STARTCHAR U+0055
ENCODING 85
SWIDTH 360 0
DWIDTH 7 0
BBX 11 14 -2 -3
BITMAP
0000
0000
0000
1980
1980
1980
3300
3300
3300
6600
3C00
0000
0000
0000
ENDCHAR
STARTCHAR U+0056
ENCODING 86
SWIDTH 360 0
DWIDTH 7 0
BBX 11 14 -2 -3
BITMAP
0000
0000
0000
1980
1980
1980
3300
3300
3300
3C00
1800
0000
0000
0000
ENDCHAR
STARTCHAR U+0057
ENCODING 87
SWIDTH 360 0
DWIDTH 7 0
BBX 11 14 -2 -3
BITMAP
0000
0000
0000
1980
1980
1980
3300
3300
3F00
7E00
6600
0000
0000
0000
ENDCHAR
STARTCHAR U+0058
ENCODING 88
SWIDTH 360 0
DWIDTH 7 0
BBX 11 14 -2 -3
BITMAP
0000
0000
0000
1980
1980
0F00
0C00
0C00
1C00
6600
6600
0000
0000
0000
ENDCHAR
STARTCHAR U+0059
ENCODING 89
SWIDTH 360 0
DWIDTH 7 0
BBX 11 14 -2 -3
BITMAP
0000
0000
0000
1980
1980
0F00
1E00
0C00
0C00
1800
1800
0000
0000
0000
ENDCHAR
STARTCHAR U+005A
ENCODING 90
SWIDTH 360 0
DWIDTH 7 0
BBX 11 14 -2 -3
BITMAP
0000
0000
0000
1F80
0300
0300
0C00
0C00
1800
3000
7E00
0000
0000
0000
ENDCHAR
STARTCHAR U+005B
ENCODING 91
SWIDTH 360 0
DWIDTH 7 0
BBX 11 14 -2 -3
BITMAP
0000
0000
0780
0C00
0C00
0C00
1800
1800
1800
3000
3000
3000
7800
0000
ENDCHAR
STARTCHAR U+005C
ENCODING 92
SWIDTH 360 0
DWIDTH 7 0
BBX 11 14 -2 -3
BITMAP
0000
0000
0C00
1800
0C00
0C00
0C00
0C00
0600
0C00
0600
0600
0000
0000
ENDCHAR
STARTCHAR U+005D
ENCODING 93
SWIDTH 360 0
DWIDTH 7 0
BBX 11 14 -2 -3
BITMAP
0000
0000
0780
0300
0300
0300
0600
0600
0600
0C00
0C00
0C00
7800
0000
ENDCHAR
STARTCHAR U+005E
ENCODING 94
SWIDTH 360 0
DWIDTH 7 0
BBX 11 14 -2 -3
BITMAP
0000
0000
0000
0600
0F00
1980
0000
0000
0000
0000
0000
0000
0000
0000
ENDCHAR
STARTCHAR U+005F
ENCODING 95
SWIDTH 360 0
DWIDTH 7 0
BBX 11 14 -2 -3
BITMAP
0000
0000
0000
0000
0000
0000
0000
0000
0000
0000
0000
0000
FE00
0000
ENDCHAR
STARTCHAR U+0060
ENCODING 96
SWIDTH 360 0
DWIDTH 7 0
BBX 11 14 -2 -3
BITMAP
0000
0000
0600
0600
0300
0000
0000
0000
0000
0000
0000
0000
0000
0000
ENDCHAR
STARTCHAR U+0061
ENCODING 97
SWIDTH 360 0
DWIDTH 7 0
BBX 11 14 -2 -3
BITMAP
0000
0000
0000
0000
0000
0F00
0300
1F00
3300
6600
3E00
0000
0000
0000
ENDCHAR
STARTCHAR U+0062
ENCODING 98
SWIDTH 360 0
DWIDTH 7 0
BBX 11 14 -2 -3
BITMAP
0000
0000
0000
1800
1800
1F00
3300
3300
3300
6600
7C00
0000
0000
0000
ENDCHAR
STARTCHAR U+0063
ENCODING 99
SWIDTH 360 0
DWIDTH 7 0
BBX 11 14 -2 -3
BITMAP
0000
0000
0000
0000
0000
0F80
3000
3000
3000
6000
3E00
0000
0000
0000
ENDCHAR
STARTCHAR U+0064
ENCODING 100
SWIDTH 360 0
DWIDTH 7 0
BBX 11 14 -2 -3
BITMAP
0000
0000
0000
0180
0180
0F80
3300
3300
3300
6600
3E00
0000
0000
0000
ENDCHAR
STARTCHAR U+0065
ENCODING 101
SWIDTH 360 0
DWIDTH 7 0
BBX 11 14 -2 -3
BITMAP
0000
0000
0000
0000
0000
0F00
3300
3F00
3000
6000
3E00
0000
0000
0000
ENDCHAR
STARTCHAR U+0066
ENCODING 102
SWIDTH 360 0
DWIDTH 7 0
BBX 11 14 -2 -3
BITMAP
0000
0000
0000
0780
0C00
1F80
1800
1800
1800
3000
3000
0000
0000
0000
ENDCHAR
STARTCHAR U+0067
ENCODING 103
SWIDTH 360 0
DWIDTH 7 0
BBX 11 14 -2 -3
BITMAP
0000
0000
0000
0000
0000
0F80
3300
3300
1E00
6000
3E00
6300
FC00
0000
ENDCHAR
STARTCHAR U+0068
ENCODING 104
SWIDTH 360 0
DWIDTH 7 0
BBX 11 14 -2 -3
BITMAP
0000
0000
0000
1800
1800
1F00
3300
3300
3300
6600
6600
0000
0000
0000
ENDCHAR
STARTCHAR U+0069
ENCODING 105
SWIDTH 360 0
DWIDTH 7 0
BBX 11 14 -2 -3
BITMAP
0000
0000
0300
0600
0000
1E00
0C00
0C00
0C00
1800
7E00
0000
0000
0000
ENDCHAR
STARTCHAR U+006A
ENCODING 106
SWIDTH 360 0
DWIDTH 7 0
BBX 11 14 -2 -3
BITMAP
0000
0000
0180
0300
0000
0F00
0600
0600
0600
0C00
0C00
0C00
F000
0000
ENDCHAR
STARTCHAR U+006B
ENCODING 107
SWIDTH 360 0
DWIDTH 7 0
BBX 11 14 -2 -3
BITMAP
0000
0000
0000
1800
1800
1B00
3C00
3800
3800
6C00
6600
0000
0000
0000
ENDCHAR
STARTCHAR U+006c
ENCODING 108
SWIDTH 360 0
DWIDTH 7 0
BBX 11 14 -2 -3
BITMAP
0000
0000
0F00
0600
0600
0600
0C00
0C00
0C00
1800
0E00
0000
0000
0000
ENDCHAR
STARTCHAR U+006D
ENCODING 109
SWIDTH 360 0
DWIDTH 7 0
BBX 11 14 -2 -3
BITMAP
0000
0000
0000
0000
0000
1B80
3F00
3F00
3300
6600
6600
0000
0000
0000
ENDCHAR
STARTCHAR U+006E
ENCODING 110
SWIDTH 360 0
DWIDTH 7 0
BBX 11 14 -2 -3
BITMAP
0000
0000
0000
0000
0000
1F00
3300
3300
3300
6600
6600
0000
0000
0000
ENDCHAR
STARTCHAR U+006F
ENCODING 111
SWIDTH 360 0
DWIDTH 7 0
BBX 11 14 -2 -3
BITMAP
0000
0000
0000
0000
0000
0F00
3300
3300
3300
6600
3C00
0000
0000
0000
ENDCHAR
STARTCHAR U+0070
ENCODING 112
SWIDTH 360 0
DWIDTH 7 0
BBX 11 14 -2 -3
BITMAP
0000
0000
0000
0000
0000
1F00
3300
3300
3300
6600
7C00
6000
C000
0000
ENDCHAR
STARTCHAR U+0071
ENCODING 113
SWIDTH 360 0
DWIDTH 7 0
BBX 11 14 -2 -3
BITMAP
0000
0000
0000
0000
0000
0F80
3300
3300
3300
6600
3E00
0600
0C00
0000
ENDCHAR
STARTCHAR U+0072
ENCODING 114
SWIDTH 360 0
DWIDTH 7 0
BBX 11 14 -2 -3
BITMAP
0000
0000
0000
0000
0000
1F80
3800
3000
3000
6000
6000
0000
0000
0000
ENDCHAR
STARTCHAR U+0073
ENCODING 115
SWIDTH 360 0
DWIDTH 7 0
BBX 11 14 -2 -3
BITMAP
0000
0000
0000
0000
0000
0F80
3000
1C00
0C00
0600
7C00
0000
0000
0000
ENDCHAR
STARTCHAR U+0074
ENCODING 116
SWIDTH 360 0
DWIDTH 7 0
BBX 11 14 -2 -3
BITMAP
0000
0000
0000
0C00
0C00
1F80
1800
1800
1800
3000
1E00
0000
0000
0000
ENDCHAR
STARTCHAR U+0075
ENCODING 117
SWIDTH 360 0
DWIDTH 7 0
BBX 11 14 -2 -3
BITMAP
0000
0000
0000
0000
0000
1980
3300
3300
3300
6600
3E00
0000
0000
0000
ENDCHAR
STARTCHAR U+0076
ENCODING 118
SWIDTH 360 0
DWIDTH 7 0
BBX 11 14 -2 -3
BITMAP
0000
0000
0000
0000
0000
1980
3300
3300
3300
3C00
1800
0000
0000
0000
ENDCHAR
STARTCHAR U+0077
ENCODING 119
SWIDTH 360 0
DWIDTH 7 0
BBX 11 14 -2 -3
BITMAP
0000
0000
0000
0000
0000
1A80
3500
3500
3500
6A00
7C00
0000
0000
0000
ENDCHAR
STARTCHAR U+0078
ENCODING 120
SWIDTH 360 0
DWIDTH 7 0
BBX 11 14 -2 -3
BITMAP
0000
0000
0000
0000
0000
1980
1E00
0C00
0C00
3C00
6600
0000
0000
0000
ENDCHAR
STARTCHAR U+0079
ENCODING 121
SWIDTH 360 0
DWIDTH 7 0
BBX 11 14 -2 -3
BITMAP
0000
0000
0000
0000
0000
1980
3300
3300
3300
6600
3E00
0600
0C00
7800
ENDCHAR
STARTCHAR U+007A
ENCODING 122
SWIDTH 360 0
DWIDTH 7 0
BBX 11 14 -2 -3
BITMAP
0000
0000
0000
0000
0000
1F80
0600
0C00
0C00
3000
7E00
0000
0000
0000
ENDCHAR
STARTCHAR U+007B
ENCODING 123
SWIDTH 360 0
DWIDTH 7 0
BBX 11 14 -2 -3
BITMAP
0000
0000
01C0
0600
0600
0600
0C00
3800
0C00
1800
1800
1800
1C00
0000
ENDCHAR
STARTCHAR U+007C
ENCODING 124
SWIDTH 360 0
DWIDTH 7 0
BBX 11 14 -2 -3
BITMAP
0000
0000
0300
0600
0600
0600
0C00
0C00
0C00
1800
1800
1800
0000
0000
ENDCHAR
STARTCHAR U+007D
ENCODING 125
SWIDTH 360 0
DWIDTH 7 0
BBX 11 14 -2 -3
BITMAP
0000
0000
0E00
0600
0600
0600
0C00
0700
0C00
1800
1800
1800
E000
0000
ENDCHAR
STARTCHAR U+007E
ENCODING 126
SWIDTH 360 0
DWIDTH 7 0
BBX 11 14 -2 -3
BITMAP
0000
0000
0000
0C80
1F80
1300
0000
0000
0000
0000
0000
0000
0000
0000
ENDCHAR
STARTCHAR U+00A0
ENCODING 160
SWIDTH 360 0
DWIDTH 7 0
BBX 11 14 -2 -3
BITMAP
0000
0000
0000
0000
0000
0000
0000
0000
0000
0000
0000
0000
0000
0000
ENDCHAR
STARTCHAR U+00A1
ENCODING 161
SWIDTH 360 0
DWIDTH 7 0
BBX 11 14 -2 -3
BITMAP
0000
0000
0000
0000
0600
0600
0000
0000
0C00
1800
3C00
3C00
3000
0000
ENDCHAR
STARTCHAR U+00A2
ENCODING 162
SWIDTH 360 0
DWIDTH 7 0
BBX 11 14 -2 -3
BITMAP
0000
0000
0180
0300
0F80
1800
3000
3000
3000
3E00
1800
1800
0000
0000
ENDCHAR
STARTCHAR U+00A3
ENCODING 163
SWIDTH 360 0
DWIDTH 7 0
BBX 11 14 -2 -3
BITMAP
0000
0000
0000
0700
0D80
0C00
1800
3E00
1800
3000
7E00
0000
0000
0000
ENDCHAR
STARTCHAR U+00A4
ENCODING 164
SWIDTH 360 0
DWIDTH 7 0
BBX 11 14 -2 -3
BITMAP
0000
0000
0000
1980
0F00
1980
3300
3300
1E00
6600
0000
0000
0000
0000
ENDCHAR
STARTCHAR U+00A5
ENCODING 165
SWIDTH 360 0
DWIDTH 7 0
BBX 11 14 -2 -3
BITMAP
0000
0000
0000
1980
0F00
0600
3F00
0C00
3F00
1800
1800
0000
0000
0000
ENDCHAR
STARTCHAR U+00A6
ENCODING 166
SWIDTH 360 0
DWIDTH 7 0
BBX 11 14 -2 -3
BITMAP
0000
0000
0000
0600
0600
0600
0C00
0000
0C00
1800
1800
1800
0000
0000
ENDCHAR
STARTCHAR U+00A8
ENCODING 168
SWIDTH 360 0
DWIDTH 7 0
BBX 11 14 -2 -3
BITMAP
0000
0000
0D80
1B00
0000
0000
0000
0000
0000
0000
0000
0000
0000
0000
ENDCHAR
STARTCHAR U+00AB
ENCODING 171
SWIDTH 360 0
DWIDTH 7 0
BBX 11 14 -2 -3
BITMAP
0000
0000
0000
0000
0000
0000
0900
1B00
3E00
3600
1200
0000
0000
0000
ENDCHAR
STARTCHAR U+00AD
ENCODING 173
SWIDTH 360 0
DWIDTH 7 0
BBX 11 14 -2 -3
BITMAP
0000
0000
0000
0000
0000
0000
0000
3F00
0000
0000
0000
0000
0000
0000
ENDCHAR
STARTCHAR U+00B4
ENCODING 180
SWIDTH 360 0
DWIDTH 7 0
BBX 11 14 -2 -3
BITMAP
0000
0000
0180
0600
0000
0000
0000
0000
0000
0000
0000
0000
0000
0000
ENDCHAR
STARTCHAR U+00B8
ENCODING 184
SWIDTH 360 0
DWIDTH 7 0
BBX 11 14 -2 -3
BITMAP
0000
0000
0000
0000
0000
0000
0000
0000
0000
0000
0000
1800
7000
0000
ENDCHAR
STARTCHAR U+00BB
ENCODING 187
SWIDTH 360 0
DWIDTH 7 0
BBX 11 14 -2 -3
BITMAP
0000
0000
0000
0000
0000
0000
2400
3600
1B00
2C00
4800
0000
0000
0000
ENDCHAR
STARTCHAR U+00BF
ENCODING 191
SWIDTH 360 0
DWIDTH 7 0
BBX 11 14 -2 -3
BITMAP
0000
0000
0000
0000
0600
0600
0000
0000
0C00
3000
6000
6600
7800
0000
ENDCHAR
STARTCHAR U+00C0
ENCODING 192
SWIDTH 360 0
DWIDTH 7 0
BBX 11 14 -2 -3
BITMAP
0000
0600
0300
0000
0600
0E00
3300
3300
3F00
6600
6600
0000
0000
0000
ENDCHAR
STARTCHAR U+00C1
ENCODING 193
SWIDTH 360 0
DWIDTH 7 0
BBX 11 14 -2 -3
BITMAP
0000
0180
0300
0000
0600
0E00
3300
3300
3F00
6600
6600
0000
0000
0000
ENDCHAR
STARTCHAR U+00C2
ENCODING 194
SWIDTH 360 0
DWIDTH 7 0
BBX 11 14 -2 -3
BITMAP
0000
0700
0D80
0000
0600
0E00
3300
3300
3F00
6600
6600
0000
0000
0000
ENDCHAR
STARTCHAR U+00C3
ENCODING 195
SWIDTH 360 0
DWIDTH 7 0
BBX 11 14 -2 -3
BITMAP
0000
0740
0B80
0000
0600
0E00
3300
3300
3F00
6600
6600
0000
0000
0000
ENDCHAR
STARTCHAR U+00C4
ENCODING 196
SWIDTH 360 0
DWIDTH 7 0
BBX 11 14 -2 -3
BITMAP
0000
0CC0
0CC0
0000
0600
0E00
3300
3300
3F00
6600
6600
0000
0000
0000
ENDCHAR
STARTCHAR U+00C5
ENCODING 197
SWIDTH 360 0
DWIDTH 7 0
BBX 11 14 -2 -3
BITMAP
0000
0780
0CC0
0F00
0600
0E00
3300
3300
3F00
6600
6600
0000
0000
0000
ENDCHAR
STARTCHAR U+00C6
ENCODING 198
SWIDTH 360 0
DWIDTH 7 0
BBX 11 14 -2 -3
BITMAP
0000
0000
0000
0780
0F00
1B00
3600
3F00
3600
6C00
6E00
0000
0000
0000
ENDCHAR
STARTCHAR U+00C7
ENCODING 199
SWIDTH 360 0
DWIDTH 7 0
BBX 11 14 -2 -3
BITMAP
0000
0000
0000
0780
0C00
1800
3000
3000
3000
3000
1E00
0C00
3800
0000
ENDCHAR
STARTCHAR U+00C8
ENCODING 200
SWIDTH 360 0
DWIDTH 7 0
BBX 11 14 -2 -3
BITMAP
0000
0600
0300
0000
1F80
1800
3000
3E00
3000
6000
7E00
0000
0000
0000
ENDCHAR
STARTCHAR U+00C9
ENCODING 201
SWIDTH 360 0
DWIDTH 7 0
BBX 11 14 -2 -3
BITMAP
0000
0180
0300
0000
1F80
1800
3000
3E00
3000
6000
7E00
0000
0000
0000
ENDCHAR
STARTCHAR U+00CA
ENCODING 202
SWIDTH 360 0
DWIDTH 7 0
BBX 11 14 -2 -3
BITMAP
0000
0700
0D80
0000
1F80
1800
3000
3E00
3000
6000
7E00
0000
0000
0000
ENDCHAR
STARTCHAR U+00CB
ENCODING 203
SWIDTH 360 0
DWIDTH 7 0
BBX 11 14 -2 -3
BITMAP
0000
0CC0
0CC0
0000
1F80
1800
3000
3E00
3000
6000
7E00
0000
0000
0000
ENDCHAR
STARTCHAR U+00CC
ENCODING 204
SWIDTH 360 0
DWIDTH 7 0
BBX 11 14 -2 -3
BITMAP
0000
0600
0300
0000
1F80
0600
0C00
0C00
0C00
1800
7E00
0000
0000
0000
ENDCHAR
STARTCHAR U+00CD
ENCODING 205
SWIDTH 360 0
DWIDTH 7 0
BBX 11 14 -2 -3
BITMAP
0000
0180
0300
0000
1F80
0600
0C00
0C00
0C00
1800
7E00
0000
0000
0000
ENDCHAR
STARTCHAR U+00CE
ENCODING 206
SWIDTH 360 0
DWIDTH 7 0
BBX 11 14 -2 -3
BITMAP
0000
0700
0D80
0000
1F80
0600
0C00
0C00
0C00
1800
7E00
0000
0000
0000
ENDCHAR
STARTCHAR U+00CF
ENCODING 207
SWIDTH 360 0
DWIDTH 7 0
BBX 11 14 -2 -3
BITMAP
0000
0CC0
0CC0
0000
1F80
0600
0C00
0C00
0C00
1800
7E00
0000
0000
0000
ENDCHAR
STARTCHAR U+00D0
ENCODING 208
SWIDTH 360 0
DWIDTH 7 0
BBX 11 14 -2 -3
BITMAP
0000
0000
0000
1F00
0D80
0D80
3B00
1B00
1B00
3400
7800
0000
0000
0000
ENDCHAR
STARTCHAR U+00D1
ENCODING 209
SWIDTH 360 0
DWIDTH 7 0
BBX 11 14 -2 -3
BITMAP
0000
0740
0B80
0000
1980
1980
3B00
3F00
3700
6600
6600
0000
0000
0000
ENDCHAR
STARTCHAR U+00D2
ENCODING 210
SWIDTH 360 0
DWIDTH 7 0
BBX 11 14 -2 -3
BITMAP
0000
0600
0300
0000
0F00
1980
3300
3300
3300
6600
3C00
0000
0000
0000
ENDCHAR
STARTCHAR U+00D3
ENCODING 211
SWIDTH 360 0
DWIDTH 7 0
BBX 11 14 -2 -3
BITMAP
0000
0180
0300
0000
0F00
1980
3300
3300
3300
6600
3C00
0000
0000
0000
ENDCHAR
STARTCHAR U+00D4
ENCODING 212
SWIDTH 360 0
DWIDTH 7 0
BBX 11 14 -2 -3
BITMAP
0000
0700
0D80
0000
0F00
1980
3300
3300
3300
6600
3C00
0000
0000
0000
ENDCHAR
STARTCHAR U+00D5
ENCODING 213
SWIDTH 360 0
DWIDTH 7 0
BBX 11 14 -2 -3
BITMAP
0000
0740
0B80
0000
0F00
1980
3300
3300
3300
6600
3C00
0000
0000
0000
ENDCHAR
STARTCHAR U+00D6
ENCODING 214
SWIDTH 360 0
DWIDTH 7 0
BBX 11 14 -2 -3
BITMAP
0000
0CC0
0CC0
0000
0F00
1980
3300
3300
3300
6600
3C00
0000
0000
0000
ENDCHAR
STARTCHAR U+00D7
ENCODING 215
SWIDTH 360 0
DWIDTH 7 0
BBX 11 14 -2 -3
BITMAP
0000
0000
0000
0000
0000
1980
1E00
0C00
1C00
6600
0000
0000
0000
0000
ENDCHAR
STARTCHAR U+00D8
ENCODING 216
SWIDTH 360 0
DWIDTH 7 0
BBX 11 14 -2 -3
BITMAP
0000
0000
0080
0F00
1980
1B80
3700
3B00
3B00
6600
3C00
2000
0000
0000
ENDCHAR
STARTCHAR U+00D9
ENCODING 217
SWIDTH 360 0
DWIDTH 7 0
BBX 11 14 -2 -3
BITMAP
0000
0600
0300
0000
1980
1980
3300
3300
3300
6600
3C00
0000
0000
0000
ENDCHAR
STARTCHAR U+00DA
ENCODING 218
SWIDTH 360 0
DWIDTH 7 0
BBX 11 14 -2 -3
BITMAP
0000
0180
0300
0000
1980
1980
3300
3300
3300
6600
3C00
0000
0000
0000
ENDCHAR
STARTCHAR U+00DB
ENCODING 219
SWIDTH 360 0
DWIDTH 7 0
BBX 11 14 -2 -3
BITMAP
0000
0700
0D80
0000
1980
1980
3300
3300
3300
6600
3C00
0000
0000
0000
ENDCHAR
STARTCHAR U+00DC
ENCODING 220
SWIDTH 360 0
DWIDTH 7 0
BBX 11 14 -2 -3
BITMAP
0000
0CC0
0CC0
0000
1980
1980
3300
3300
3300
6600
3C00
0000
0000
0000
ENDCHAR
STARTCHAR U+00DD
ENCODING 221
SWIDTH 360 0
DWIDTH 7 0
BBX 11 14 -2 -3
BITMAP
0000
0180
0300
0000
1980
1980
1E00
0C00
0C00
1800
1800
0000
0000
0000
ENDCHAR
STARTCHAR U+00DE
ENCODING 222
SWIDTH 360 0
DWIDTH 7 0
BBX 11 14 -2 -3
BITMAP
0000
0000
0000
1800
1F00
1980
3300
3300
3300
7C00
6000
0000
0000
0000
ENDCHAR
STARTCHAR U+00DF
ENCODING 223
SWIDTH 360 0
DWIDTH 7 0
BBX 11 14 -2 -3
BITMAP
0000
0000
0000
0F00
1980
1980
3600
3300
3300
6600
6C00
0000
0000
0000
ENDCHAR
STARTCHAR U+00E0
ENCODING 224
SWIDTH 360 0
DWIDTH 7 0
BBX 11 14 -2 -3
BITMAP
0000
0000
0600
0600
0000
0F00
0300
1F00
3300
6600
3E00
0000
0000
0000
ENDCHAR
STARTCHAR U+00E1
ENCODING 225
SWIDTH 360 0
DWIDTH 7 0
BBX 11 14 -2 -3
BITMAP
0000
0000
0180
0600
0000
0F00
0300
1F00
3300
6600
3E00
0000
0000
0000
ENDCHAR
STARTCHAR U+00E2
ENCODING 226
SWIDTH 360 0
DWIDTH 7 0
BBX 11 14 -2 -3
BITMAP
0000
0000
0380
0D80
0000
0F00
0300
1F00
3300
6600
3E00
0000
0000
0000
ENDCHAR
STARTCHAR U+00E3
ENCODING 227
SWIDTH 360 0
DWIDTH 7 0
BBX 11 14 -2 -3
BITMAP
0000
0000
0F40
1700
0000
0F00
0300
1F00
3300
6600
3E00
0000
0000
0000
ENDCHAR
STARTCHAR U+00E4
ENCODING 228
SWIDTH 360 0
DWIDTH 7 0
BBX 11 14 -2 -3
BITMAP
0000
0000
06C0
0D80
0000
0F00
0300
1F00
3300
6600
3E00
0000
0000
0000
ENDCHAR
STARTCHAR U+00E5
ENCODING 229
SWIDTH 360 0
DWIDTH 7 0
BBX 11 14 -2 -3
BITMAP
0000
0380
06C0
0700
0000
0F00
0300
1F00
3300
6600
3E00
0000
0000
0000
ENDCHAR
STARTCHAR U+00E6
ENCODING 230
SWIDTH 360 0
DWIDTH 7 0
BBX 11 14 -2 -3
BITMAP
0000
0000
0000
0000
0000
0F00
0D00
1F00
2C00
3800
2E00
0000
0000
0000
ENDCHAR
STARTCHAR U+00E7
ENCODING 231
SWIDTH 360 0
DWIDTH 7 0
BBX 11 14 -2 -3
BITMAP
0000
0000
0000
0000
0000
0F80
3000
3000
3000
6000
3E00
1800
7000
0000
ENDCHAR
STARTCHAR U+00E8
ENCODING 232
SWIDTH 360 0
DWIDTH 7 0
BBX 11 14 -2 -3
BITMAP
0000
0000
0600
0600
0000
0F00
3300
3F00
3000
6000
3E00
0000
0000
0000
ENDCHAR
STARTCHAR U+00E9
ENCODING 233
SWIDTH 360 0
DWIDTH 7 0
BBX 11 14 -2 -3
BITMAP
0000
0000
0180
0600
0000
0F00
3300
3F00
3000
6000
3E00
0000
0000
0000
ENDCHAR
STARTCHAR U+00EA
ENCODING 234
SWIDTH 360 0
DWIDTH 7 0
BBX 11 14 -2 -3
BITMAP
0000
0000
0700
1B00
0000
0F00
3300
3F00
3000
6000
3E00
0000
0000
0000
ENDCHAR
STARTCHAR U+00EB
ENCODING 235
SWIDTH 360 0
DWIDTH 7 0
BBX 11 14 -2 -3
BITMAP
0000
0000
0D80
1B00
0000
0F00
3300
3F00
3000
6000
3E00
0000
0000
0000
ENDCHAR
STARTCHAR U+00EC
ENCODING 236
SWIDTH 360 0
DWIDTH 7 0
BBX 11 14 -2 -3
BITMAP
0000
0000
0600
0600
0000
1E00
0C00
0C00
0C00
1800
7E00
0000
0000
0000
ENDCHAR
STARTCHAR U+00ED
ENCODING 237
SWIDTH 360 0
DWIDTH 7 0
BBX 11 14 -2 -3
BITMAP
0000
0000
0180
0600
0000
1E00
0C00
0C00
0C00
1800
7E00
0000
0000
0000
ENDCHAR
STARTCHAR U+00EE
ENCODING 238
SWIDTH 360 0
DWIDTH 7 0
BBX 11 14 -2 -3
BITMAP
0000
0000
0700
1B00
0000
1E00
0C00
0C00
0C00
1800
7E00
0000
0000
0000
ENDCHAR
STARTCHAR U+00EF
ENCODING 239
SWIDTH 360 0
DWIDTH 7 0
BBX 11 14 -2 -3
BITMAP
0000
0000
0D80
1B00
0000
1E00
0C00
0C00
0C00
1800
7E00
0000
0000
0000
ENDCHAR
STARTCHAR U+00F0
ENCODING 240
SWIDTH 360 0
DWIDTH 7 0
BBX 11 14 -2 -3
BITMAP
0000
0340
0180
0F00
0180
0F80
3300
3300
3300
6600
3C00
0000
0000
0000
ENDCHAR
STARTCHAR U+00F1
ENCODING 241
SWIDTH 360 0
DWIDTH 7 0
BBX 11 14 -2 -3
BITMAP
0000
0000
0F40
1700
0000
1F00
3300
3300
3300
6600
6600
0000
0000
0000
ENDCHAR
STARTCHAR U+00F2
ENCODING 242
SWIDTH 360 0
DWIDTH 7 0
BBX 11 14 -2 -3
BITMAP
0000
0000
0600
0600
0000
0F00
3300
3300
3300
6600
3C00
0000
0000
0000
ENDCHAR
STARTCHAR U+00F3
ENCODING 243
SWIDTH 360 0
DWIDTH 7 0
BBX 11 14 -2 -3
BITMAP
0000
0000
0180
0600
0000
0F00
3300
3300
3300
6600
3C00
0000
0000
0000
ENDCHAR
STARTCHAR U+00F4
ENCODING 244
SWIDTH 360 0
DWIDTH 7 0
BBX 11 14 -2 -3
BITMAP
0000
0000
0700
1B00
0000
0F00
3300
3300
3300
6600
3C00
0000
0000
0000
ENDCHAR
STARTCHAR U+00F5
ENCODING 245
SWIDTH 360 0
DWIDTH 7 0
BBX 11 14 -2 -3
BITMAP
0000
0000
0F40
1700
0000
0F00
3300
3300
3300
6600
3C00
0000
0000
0000
ENDCHAR
STARTCHAR U+00F6
ENCODING 246
SWIDTH 360 0
DWIDTH 7 0
BBX 11 14 -2 -3
BITMAP
0000
0000
06C0
0D80
0000
0F00
3300
3300
3300
6600
3C00
0000
0000
0000
ENDCHAR
STARTCHAR U+00F7
ENCODING 247
SWIDTH 360 0
DWIDTH 7 0
BBX 11 14 -2 -3
BITMAP
0000
0000
0000
0000
0600
0600
0000
3F00
0000
1800
1800
0000
0000
0000
ENDCHAR
STARTCHAR U+00F8
ENCODING 248
SWIDTH 360 0
DWIDTH 7 0
BBX 11 14 -2 -3
BITMAP
0000
0000
0000
0000
0100
0F00
3300
3700
3B00
6600
3C00
2000
0000
0000
ENDCHAR
STARTCHAR U+00F9
ENCODING 249
SWIDTH 360 0
DWIDTH 7 0
BBX 11 14 -2 -3
BITMAP
0000
0000
0600
0600
0000
1980
3300
3300
3300
6600
3E00
0000
0000
0000
ENDCHAR
STARTCHAR U+00FA
ENCODING 250
SWIDTH 360 0
DWIDTH 7 0
BBX 11 14 -2 -3
BITMAP
0000
0000
0180
0600
0000
1980
3300
3300
3300
6600
3E00
0000
0000
0000
ENDCHAR
STARTCHAR U+00FB
ENCODING 251
SWIDTH 360 0
DWIDTH 7 0
BBX 11 14 -2 -3
BITMAP
0000
0000
0700
1B00
0000
1980
3300
3300
3300
6600
3E00
0000
0000
0000
ENDCHAR
STARTCHAR U+00FC
ENCODING 252
SWIDTH 360 0
DWIDTH 7 0
BBX 11 14 -2 -3
BITMAP
0000
0000
06C0
0D80
0000
1980
3300
3300
3300
6600
3E00
0000
0000
0000
ENDCHAR
STARTCHAR U+00FD
ENCODING 253
SWIDTH 360 0
DWIDTH 7 0
BBX 11 14 -2 -3
BITMAP
0000
0000
0180
0600
0000
1980
3300
3300
3300
3C00
1C00
1800
E000
0000
ENDCHAR
STARTCHAR U+00FE
ENCODING 254
SWIDTH 360 0
DWIDTH 7 0
BBX 11 14 -2 -3
BITMAP
0000
0000
0000
1800
1800
1F00
3300
3300
3300
6600
7C00
6000
C000
0000
ENDCHAR
STARTCHAR U+00FF
ENCODING 255
SWIDTH 360 0
DWIDTH 7 0
BBX 11 14 -2 -3
BITMAP
0000
0000
06C0
0D80
0000
1980
3300
3300
3300
3C00
1C00
1800
E000
0000
ENDCHAR
STARTCHAR U+2500
ENCODING 9472
SWIDTH 360 0
DWIDTH 7 0
BBX 11 14 -2 -3
BITMAP
0000
0000
0000
0000
0000
0000
0000
3F80
0000
0000
0000
0000
0000
0000
ENDCHAR
STARTCHAR U+2502
ENCODING 9474
SWIDTH 360 0
DWIDTH 7 0
BBX 11 14 -2 -3
BITMAP
0300
0300
0300
0600
0600
0600
0C00
0C00
0C00
1800
1800
1800
3000
3000
ENDCHAR
STARTCHAR U+250C
ENCODING 9484
SWIDTH 360 0
DWIDTH 7 0
BBX 11 14 -2 -3
BITMAP
0000
0000
0000
0000
0000
0000
0000
0F80
0C00
1800
1800
1800
3000
3000
ENDCHAR
STARTCHAR U+2510
ENCODING 9488
SWIDTH 360 0
DWIDTH 7 0
BBX 11 14 -2 -3
BITMAP
0000
0000
0000
0000
0000
0000
0000
3C00
0C00
1800
1800
1800
3000
3000
ENDCHAR
STARTCHAR U+2514
ENCODING 9492
SWIDTH 360 0
DWIDTH 7 0
BBX 11 14 -2 -3
BITMAP
0300
0300
0300
0600
0600
0600
0C00
0F80
0000
0000
0000
0000
0000
0000
ENDCHAR
STARTCHAR U+2518
ENCODING 9496
SWIDTH 360 0
DWIDTH 7 0
BBX 11 14 -2 -3
BITMAP
0300
0300
0300
0600
0600
0600
0C00
3C00
0000
0000
0000
0000
0000
0000
ENDCHAR
STARTCHAR U+251C
ENCODING 9500
SWIDTH 360 0
DWIDTH 7 0
BBX 11 14 -2 -3
BITMAP
0300
0300
0300
0600
0600
0600
0C00
0F80
0C00
1800
1800
1800
3000
3000
ENDCHAR
STARTCHAR U+2524
ENCODING 9508
SWIDTH 360 0
DWIDTH 7 0
BBX 11 14 -2 -3
BITMAP
0300
0300
0300
0600
0600
0600
0C00
3C00
0C00
1800
1800
1800
3000
3000
ENDCHAR
STARTCHAR U+252C
ENCODING 9516
SWIDTH 360 0
DWIDTH 7 0
BBX 11 14 -2 -3
BITMAP
0000
0000
0000
0000
0000
0000
0000
3F80
0C00
1800
1800
1800
3000
3000
ENDCHAR
STARTCHAR U+2534
ENCODING 9524
SWIDTH 360 0
DWIDTH 7 0
BBX 11 14 -2 -3
BITMAP
0300
0300
0300
0600
0600
0600
0C00
3F80
0000
0000
0000
0000
0000
0000
ENDCHAR
STARTCHAR U+253C
ENCODING 9532
SWIDTH 360 0
DWIDTH 7 0
BBX 11 14 -2 -3
BITMAP
0300
0300
0300
0600
0600
0600
0C00
3F80
0C00
1800
1800
1800
3000
3000
ENDCHAR
STARTCHAR U+2592
ENCODING 9618
SWIDTH 360 0
DWIDTH 7 0
BBX 11 14 -2 -3
BITMAP
0920
0240
0C80
1240
0480
1900
2480
0900
3200
4900
1200
6400
9200
2400
ENDCHAR
STARTCHAR char11104
ENCODING 11104
SWIDTH 360 0
DWIDTH 7 0
BBX 11 14 -2 -3
BITMAP
0000
0600
0600
0D80
0D80
0D80
1B00
0300
1F00
3C00
0000
3000
6000
0000
ENDCHAR
STARTCHAR char11105
ENCODING 11105
SWIDTH 360 0
DWIDTH 7 0
BBX 11 14 -2 -3
BITMAP
0000
0800
0800
1000
1000
1E00
0000
0000
0480
0D00
0B00
0900
1200
0000
ENDCHAR
STARTCHAR char11106
ENCODING 11106
SWIDTH 360 0
DWIDTH 7 0
BBX 11 14 -2 -3
BITMAP
0000
0000
0FE0
1000
17C0
1080
2F00
2800
2800
5000
5000
2000
0000
0000
ENDCHAR
STARTCHAR char11107
ENCODING 11107
SWIDTH 360 0
DWIDTH 7 0
BBX 11 14 -2 -3
BITMAP
0000
0000
0F80
0040
1D80
0500
0A00
0A00
0A00
1400
1400
0800
0000
0000
ENDCHAR
STARTCHAR char11108
ENCODING 11108
SWIDTH 360 0
DWIDTH 7 0
BBX 11 14 -2 -3
BITMAP
0000
0300
0480
0880
0880
0880
3F80
3F80
3B80
7700
7F00
3E00
0000
0000
ENDCHAR
STARTCHAR char11136
ENCODING 11136
SWIDTH 360 0
DWIDTH 7 0
BBX 11 14 -2 -3
BITMAP
0800
0C00
0E00
1E00
1F00
1F80
3F80
3F80
3F00
7C00
7800
7000
C000
8000
ENDCHAR
STARTCHAR char11137
ENCODING 11137
SWIDTH 360 0
DWIDTH 7 0
BBX 11 14 -2 -3
BITMAP
0800
0400
0200
0200
0100
0080
0080
0080
0100
0600
0800
3000
4000
8000
ENDCHAR
STARTCHAR char11138
ENCODING 11138
SWIDTH 360 0
DWIDTH 7 0
BBX 11 14 -2 -3
BITMAP
0020
0060
00E0
03C0
07C0
0FC0
3F80
3F80
1F80
1F00
0F00
0700
0600
0200
ENDCHAR
STARTCHAR char11139
ENCODING 11139
SWIDTH 360 0
DWIDTH 7 0
BBX 11 14 -2 -3
BITMAP
0020
0040
0180
0200
0400
0800
1000
2000
1000
1000
0800
0400
0400
0200
ENDCHAR
ENDFONT
